# Blender v2.93.4 OBJ File: ''
# www.blender.org
v 0.000000 -0.500000 -1.000000
v 0.000000 -0.500000 1.000000
v -0.433013 0.250000 -1.000000
v -0.433013 0.250000 1.000000
v 0.433013 0.250000 -1.000000
v 0.433013 0.250000 1.000000
v 0.000000 -1.000000 1.000000
v -0.866025 -0.500000 1.000000
v -0.866025 0.500000 1.000000
v 0.000000 1.000000 1.000000
v 0.866025 0.500000 1.000000
v 0.866025 -0.500000 1.000000
v 0.000000 -0.000000 3.000000
vt 1.000000 1.000000
vt 0.666667 0.500000
vt 1.000000 0.500000
vt 0.666667 1.000000
vt 0.333333 0.500000
vt 0.457846 0.130000
vt 0.250000 0.490000
vt 0.042154 0.130000
vt 0.333333 1.000000
vt -0.000000 0.500000
vt 0.750000 0.490000
vt 0.957846 0.130000
vt 0.542154 0.130000
vt 0.250000 0.490000
vt 0.250000 0.250000
vt 0.457846 0.370000
vt 0.457846 0.130000
vt 0.250000 0.010000
vt 0.042154 0.130000
vt 0.542154 0.130000
vt 0.542154 0.370000
vt 0.957846 0.370000
vt 0.042154 0.370000
vt -0.000000 1.000000
vt 0.750000 0.490000
vt 0.957846 0.130000
vt 0.750000 0.010000
vn -0.8660 -0.5000 -0.0000
vn 0.0000 1.0000 0.0000
vn 0.0000 0.0000 1.0000
vn 0.8660 -0.5000 -0.0000
vn -0.0000 0.0000 -1.0000
vn -0.4588 -0.7947 0.3974
vn -0.9177 0.0000 0.3974
vn -0.4588 0.7947 0.3974
vn 0.4588 0.7947 0.3974
vn 0.9177 0.0000 0.3974
vn 0.4588 -0.7947 0.3974
s off
f 2/1/1 3/2/1 1/3/1
f 4/4/2 5/5/2 3/2/2
f 4/6/3 2/7/3 6/8/3
f 6/9/4 1/10/4 5/5/4
f 1/11/5 3/12/5 5/13/5
f 7/14/6 13/15/6 8/16/6
f 8/16/7 13/15/7 9/17/7
f 9/17/8 13/15/8 10/18/8
f 10/18/9 13/15/9 11/19/9
f 11/20/5 12/21/5 8/22/5
f 11/19/10 13/15/10 12/23/10
f 12/23/11 13/15/11 7/14/11
f 2/1/1 4/4/1 3/2/1
f 4/4/2 6/9/2 5/5/2
f 6/9/4 2/24/4 1/10/4
f 12/21/5 7/25/5 8/22/5
f 8/22/5 9/26/5 10/27/5
f 10/27/5 11/20/5 8/22/5
